# MagicaVoxel @ Ephtracy

# group
g Revolver

# material
mtllib Revolver.mtl
usemtl palette

# normals
vn -1 0 0
vn 1 0 0
vn 0 0 1
vn 0 0 -1
vn 0 -1 0
vn 0 1 0

# texcoords
vt 0.892578 0.5
vt 0.896484 0.5
vt 0.900391 0.5
vt 0.931641 0.5
vt 0.935547 0.5

# verts
v -15 26 5
v -15 26 4
v -15 27 5
v -15 27 4
v -15 28 5
v -15 28 4
v -10 25 5
v -10 25 4
v -10 26 5
v -10 26 4
v -8 24 5
v -8 24 4
v -8 25 5
v -8 25 4
v -5 24 6
v -5 24 5
v -5 24 4
v -5 24 3
v -5 25 6
v -5 25 5
v -5 25 4
v -5 25 3
v -5 26 6
v -5 26 5
v -5 26 4
v -5 26 3
v -5 27 6
v -5 27 5
v -5 27 4
v -5 27 3
v -3 23 5
v -3 23 4
v -3 24 5
v -3 24 4
v -2 21 5
v -2 21 4
v -2 23 5
v -2 23 4
v -1 20 5
v -1 20 4
v -1 21 5
v -1 21 4
v -1 25 6
v -1 25 5
v -1 25 4
v -1 25 3
v -1 26 6
v -1 26 5
v -1 26 4
v -1 26 3
v 1 21 5
v 1 21 4
v 1 22 5
v 1 22 4
v 2 22 5
v 2 22 4
v 2 23 5
v 2 23 4
v 2 26 5
v 2 26 4
v 2 27 5
v 2 27 4
v 3 21 5
v 3 21 4
v 3 22 5
v 3 22 4
v 4 24 6
v 4 24 5
v 4 24 4
v 4 24 3
v 4 25 6
v 4 25 5
v 4 25 4
v 4 25 3
v 5 19 5
v 5 19 4
v 5 22 6
v 5 22 5
v 5 22 4
v 5 22 3
v 5 24 6
v 5 24 5
v 5 24 4
v 5 24 3
v 6 18 5
v 6 18 4
v 6 19 5
v 6 19 4
v 6 20 6
v 6 20 5
v 6 20 4
v 6 20 3
v 6 22 6
v 6 22 5
v 6 22 4
v 6 22 3
v 7 19 6
v 7 19 5
v 7 19 4
v 7 19 3
v 7 20 6
v 7 20 5
v 7 20 4
v 7 20 3
v -14 27 5
v -14 27 4
v -14 28 5
v -14 28 4
v -3 25 6
v -3 25 5
v -3 25 4
v -3 25 3
v -3 26 6
v -3 26 5
v -3 26 4
v -3 26 3
v -1 21 5
v -1 21 4
v -1 23 5
v -1 23 4
v 0 24 6
v 0 24 5
v 0 24 4
v 0 24 3
v 0 27 6
v 0 27 5
v 0 27 4
v 0 27 3
v 1 26 5
v 1 26 4
v 1 27 5
v 1 27 4
v 2 21 5
v 2 21 4
v 2 22 5
v 2 22 4
v 3 25 5
v 3 25 4
v 3 26 5
v 3 26 4
v 4 20 5
v 4 20 4
v 4 22 5
v 4 22 4
v 4 26 5
v 4 26 4
v 4 27 5
v 4 27 4
v 5 24 6
v 5 24 5
v 5 24 4
v 5 24 3
v 5 25 6
v 5 25 5
v 5 25 4
v 5 25 3
v 6 23 6
v 6 23 5
v 6 23 4
v 6 23 3
v 6 24 6
v 6 24 5
v 6 24 4
v 6 24 3
v 6 25 5
v 6 25 4
v 7 22 6
v 7 22 5
v 7 22 4
v 7 22 3
v 7 23 6
v 7 23 5
v 7 23 4
v 7 23 3
v 7 24 5
v 7 24 4
v 8 21 6
v 8 21 5
v 8 21 4
v 8 21 3
v 8 22 6
v 8 22 5
v 8 22 4
v 8 22 3
v 8 23 5
v 8 23 4
v 9 19 6
v 9 19 5
v 9 19 4
v 9 19 3
v 9 21 6
v 9 21 5
v 9 21 4
v 9 21 3
v 9 22 5
v 9 22 4
v 10 18 5
v 10 18 4
v 10 21 5
v 10 21 4
v -5 24 6
v -5 25 6
v -5 26 6
v -5 27 6
v -4 24 6
v -4 25 6
v -4 26 6
v -4 27 6
v -3 25 6
v -3 26 6
v -1 24 6
v -1 25 6
v -1 26 6
v -1 27 6
v 0 24 6
v 0 27 6
v 4 24 6
v 4 25 6
v 5 22 6
v 5 24 6
v 5 25 6
v 6 20 6
v 6 22 6
v 6 23 6
v 6 24 6
v 7 19 6
v 7 20 6
v 7 22 6
v 7 23 6
v 8 21 6
v 8 22 6
v 9 19 6
v 9 21 6
v -15 26 5
v -15 27 5
v -15 28 5
v -14 27 5
v -14 28 5
v -10 25 5
v -10 26 5
v -8 24 5
v -8 25 5
v -7 26 5
v -7 27 5
v -6 24 5
v -6 25 5
v -5 24 5
v -5 25 5
v -5 26 5
v -5 27 5
v -3 23 5
v -3 24 5
v -3 25 5
v -3 26 5
v -2 21 5
v -2 23 5
v -1 20 5
v -1 21 5
v -1 23 5
v -1 24 5
v -1 25 5
v -1 26 5
v 0 24 5
v 0 27 5
v 1 21 5
v 1 22 5
v 1 26 5
v 1 27 5
v 2 21 5
v 2 22 5
v 2 23 5
v 2 25 5
v 2 26 5
v 2 27 5
v 3 21 5
v 3 22 5
v 3 23 5
v 3 24 5
v 3 25 5
v 3 26 5
v 4 20 5
v 4 22 5
v 4 24 5
v 4 25 5
v 4 26 5
v 4 27 5
v 5 19 5
v 5 22 5
v 5 24 5
v 5 25 5
v 6 18 5
v 6 19 5
v 6 20 5
v 6 22 5
v 6 23 5
v 6 24 5
v 6 25 5
v 7 19 5
v 7 20 5
v 7 22 5
v 7 23 5
v 7 24 5
v 8 21 5
v 8 22 5
v 8 23 5
v 9 19 5
v 9 21 5
v 9 22 5
v 10 18 5
v 10 21 5
v -15 26 4
v -15 27 4
v -15 28 4
v -14 27 4
v -14 28 4
v -10 25 4
v -10 26 4
v -8 24 4
v -8 25 4
v -7 26 4
v -7 27 4
v -6 24 4
v -6 25 4
v -5 24 4
v -5 25 4
v -5 26 4
v -5 27 4
v -3 23 4
v -3 24 4
v -3 25 4
v -3 26 4
v -2 21 4
v -2 23 4
v -1 20 4
v -1 21 4
v -1 23 4
v -1 24 4
v -1 25 4
v -1 26 4
v 0 24 4
v 0 27 4
v 1 21 4
v 1 22 4
v 1 26 4
v 1 27 4
v 2 21 4
v 2 22 4
v 2 23 4
v 2 25 4
v 2 26 4
v 2 27 4
v 3 21 4
v 3 22 4
v 3 23 4
v 3 24 4
v 3 25 4
v 3 26 4
v 4 20 4
v 4 22 4
v 4 24 4
v 4 25 4
v 4 26 4
v 4 27 4
v 5 19 4
v 5 22 4
v 5 24 4
v 5 25 4
v 6 18 4
v 6 19 4
v 6 20 4
v 6 22 4
v 6 23 4
v 6 24 4
v 6 25 4
v 7 19 4
v 7 20 4
v 7 22 4
v 7 23 4
v 7 24 4
v 8 21 4
v 8 22 4
v 8 23 4
v 9 19 4
v 9 21 4
v 9 22 4
v 10 18 4
v 10 21 4
v -5 24 3
v -5 25 3
v -5 26 3
v -5 27 3
v -4 24 3
v -4 25 3
v -4 26 3
v -4 27 3
v -3 25 3
v -3 26 3
v -1 24 3
v -1 25 3
v -1 26 3
v -1 27 3
v 0 24 3
v 0 27 3
v 4 24 3
v 4 25 3
v 5 22 3
v 5 24 3
v 5 25 3
v 6 20 3
v 6 22 3
v 6 23 3
v 6 24 3
v 7 19 3
v 7 20 3
v 7 22 3
v 7 23 3
v 8 21 3
v 8 22 3
v 9 19 3
v 9 21 3
v 6 18 5
v 10 18 5
v 6 18 4
v 10 18 4
v 7 19 6
v 9 19 6
v 5 19 5
v 6 19 5
v 7 19 5
v 9 19 5
v 5 19 4
v 6 19 4
v 7 19 4
v 9 19 4
v 7 19 3
v 9 19 3
v 6 20 6
v 7 20 6
v -1 20 5
v 4 20 5
v 6 20 5
v 7 20 5
v -1 20 4
v 4 20 4
v 6 20 4
v 7 20 4
v 6 20 3
v 7 20 3
v -2 21 5
v -1 21 5
v -2 21 4
v -1 21 4
v 5 22 6
v 6 22 6
v 2 22 5
v 3 22 5
v 4 22 5
v 5 22 5
v 6 22 5
v 2 22 4
v 3 22 4
v 4 22 4
v 5 22 4
v 6 22 4
v 5 22 3
v 6 22 3
v -3 23 5
v -2 23 5
v -1 23 5
v 2 23 5
v -3 23 4
v -2 23 4
v -1 23 4
v 2 23 4
v -5 24 6
v -4 24 6
v -1 24 6
v 0 24 6
v 4 24 6
v 5 24 6
v -8 24 5
v -6 24 5
v -5 24 5
v -4 24 5
v -3 24 5
v -1 24 5
v 0 24 5
v 4 24 5
v 5 24 5
v -8 24 4
v -6 24 4
v -5 24 4
v -4 24 4
v -3 24 4
v -1 24 4
v 0 24 4
v 4 24 4
v 5 24 4
v -5 24 3
v -4 24 3
v -1 24 3
v 0 24 3
v 4 24 3
v 5 24 3
v -10 25 5
v -8 25 5
v -10 25 4
v -8 25 4
v -3 26 6
v -1 26 6
v -15 26 5
v -10 26 5
v -3 26 5
v -1 26 5
v 3 26 5
v 4 26 5
v -15 26 4
v -10 26 4
v -3 26 4
v -1 26 4
v 3 26 4
v 4 26 4
v -3 26 3
v -1 26 3
v 8 21 6
v 9 21 6
v -1 21 5
v 1 21 5
v 2 21 5
v 3 21 5
v 8 21 5
v 9 21 5
v 10 21 5
v -1 21 4
v 1 21 4
v 2 21 4
v 3 21 4
v 8 21 4
v 9 21 4
v 10 21 4
v 8 21 3
v 9 21 3
v 7 22 6
v 8 22 6
v 1 22 5
v 2 22 5
v 7 22 5
v 8 22 5
v 9 22 5
v 1 22 4
v 2 22 4
v 7 22 4
v 8 22 4
v 9 22 4
v 7 22 3
v 8 22 3
v 6 23 6
v 7 23 6
v 6 23 5
v 7 23 5
v 8 23 5
v 6 23 4
v 7 23 4
v 8 23 4
v 6 23 3
v 7 23 3
v 5 24 6
v 6 24 6
v 5 24 5
v 6 24 5
v 7 24 5
v 5 24 4
v 6 24 4
v 7 24 4
v 5 24 3
v 6 24 3
v -3 25 6
v -1 25 6
v 4 25 6
v 5 25 6
v -3 25 5
v -1 25 5
v 3 25 5
v 4 25 5
v 5 25 5
v 6 25 5
v -3 25 4
v -1 25 4
v 3 25 4
v 4 25 4
v 5 25 4
v 6 25 4
v -3 25 3
v -1 25 3
v 4 25 3
v 5 25 3
v 1 26 5
v 2 26 5
v 1 26 4
v 2 26 4
v -5 27 6
v -4 27 6
v -1 27 6
v 0 27 6
v -14 27 5
v -7 27 5
v -5 27 5
v -4 27 5
v -1 27 5
v 0 27 5
v 1 27 5
v 2 27 5
v 4 27 5
v -14 27 4
v -7 27 4
v -5 27 4
v -4 27 4
v -1 27 4
v 0 27 4
v 1 27 4
v 2 27 4
v 4 27 4
v -5 27 3
v -4 27 3
v -1 27 3
v 0 27 3
v -15 28 5
v -14 28 5
v -15 28 4
v -14 28 4

# faces
f 3/1/1 2/1/1 1/1/1
f 4/1/1 2/1/1 3/1/1
f 5/3/1 4/3/1 3/3/1
f 6/3/1 4/3/1 5/3/1
f 9/3/1 8/3/1 7/3/1
f 10/3/1 8/3/1 9/3/1
f 13/3/1 12/3/1 11/3/1
f 14/3/1 12/3/1 13/3/1
f 19/2/1 16/2/1 15/2/1
f 20/2/1 16/2/1 19/2/1
f 21/2/1 18/2/1 17/2/1
f 22/2/1 18/2/1 21/2/1
f 23/1/1 20/1/1 19/1/1
f 24/1/1 20/1/1 23/1/1
f 25/1/1 22/1/1 21/1/1
f 26/1/1 22/1/1 25/1/1
f 27/2/1 24/2/1 23/2/1
f 28/2/1 24/2/1 27/2/1
f 29/2/1 26/2/1 25/2/1
f 30/2/1 26/2/1 29/2/1
f 33/1/1 32/1/1 31/1/1
f 34/1/1 32/1/1 33/1/1
f 37/1/1 36/1/1 35/1/1
f 38/1/1 36/1/1 37/1/1
f 41/1/1 40/1/1 39/1/1
f 42/1/1 40/1/1 41/1/1
f 47/3/1 44/3/1 43/3/1
f 48/3/1 44/3/1 47/3/1
f 49/3/1 46/3/1 45/3/1
f 50/3/1 46/3/1 49/3/1
f 53/3/1 52/3/1 51/3/1
f 54/3/1 52/3/1 53/3/1
f 57/3/1 56/3/1 55/3/1
f 58/3/1 56/3/1 57/3/1
f 61/3/1 60/3/1 59/3/1
f 62/3/1 60/3/1 61/3/1
f 65/1/1 64/1/1 63/1/1
f 66/1/1 64/1/1 65/1/1
f 71/4/1 68/4/1 67/4/1
f 72/4/1 68/4/1 71/4/1
f 73/4/1 70/4/1 69/4/1
f 74/4/1 70/4/1 73/4/1
f 78/5/1 76/5/1 75/5/1
f 79/5/1 76/5/1 78/5/1
f 81/4/1 78/4/1 77/4/1
f 82/4/1 78/4/1 81/4/1
f 83/4/1 80/4/1 79/4/1
f 84/4/1 80/4/1 83/4/1
f 87/5/1 86/5/1 85/5/1
f 88/5/1 86/5/1 87/5/1
f 93/4/1 90/4/1 89/4/1
f 94/4/1 90/4/1 93/4/1
f 95/4/1 92/4/1 91/4/1
f 96/4/1 92/4/1 95/4/1
f 101/4/1 98/4/1 97/4/1
f 102/4/1 98/4/1 101/4/1
f 103/4/1 100/4/1 99/4/1
f 104/4/1 100/4/1 103/4/1
f 105/3/2 106/3/2 107/3/2
f 107/3/2 106/3/2 108/3/2
f 109/1/2 110/1/2 113/1/2
f 113/1/2 110/1/2 114/1/2
f 111/1/2 112/1/2 115/1/2
f 115/1/2 112/1/2 116/1/2
f 117/1/2 118/1/2 119/1/2
f 119/1/2 118/1/2 120/1/2
f 121/3/2 122/3/2 125/3/2
f 125/3/2 122/3/2 126/3/2
f 123/3/2 124/3/2 127/3/2
f 127/3/2 124/3/2 128/3/2
f 129/1/2 130/1/2 131/1/2
f 131/1/2 130/1/2 132/1/2
f 133/3/2 134/3/2 135/3/2
f 135/3/2 134/3/2 136/3/2
f 137/3/2 138/3/2 139/3/2
f 139/3/2 138/3/2 140/3/2
f 141/1/2 142/1/2 143/1/2
f 143/1/2 142/1/2 144/1/2
f 145/3/2 146/3/2 147/3/2
f 147/3/2 146/3/2 148/3/2
f 149/4/2 150/4/2 153/4/2
f 153/4/2 150/4/2 154/4/2
f 151/4/2 152/4/2 155/4/2
f 155/4/2 152/4/2 156/4/2
f 157/4/2 158/4/2 161/4/2
f 161/4/2 158/4/2 162/4/2
f 159/4/2 160/4/2 163/4/2
f 163/4/2 160/4/2 164/4/2
f 162/5/2 163/5/2 165/5/2
f 165/5/2 163/5/2 166/5/2
f 167/4/2 168/4/2 171/4/2
f 171/4/2 168/4/2 172/4/2
f 169/4/2 170/4/2 173/4/2
f 173/4/2 170/4/2 174/4/2
f 172/5/2 173/5/2 175/5/2
f 175/5/2 173/5/2 176/5/2
f 177/4/2 178/4/2 181/4/2
f 181/4/2 178/4/2 182/4/2
f 179/4/2 180/4/2 183/4/2
f 183/4/2 180/4/2 184/4/2
f 182/5/2 183/5/2 185/5/2
f 185/5/2 183/5/2 186/5/2
f 187/4/2 188/4/2 191/4/2
f 191/4/2 188/4/2 192/4/2
f 189/4/2 190/4/2 193/4/2
f 193/4/2 190/4/2 194/4/2
f 192/5/2 193/5/2 195/5/2
f 195/5/2 193/5/2 196/5/2
f 197/5/2 198/5/2 199/5/2
f 199/5/2 198/5/2 200/5/2
f 205/2/3 202/2/3 201/2/3
f 206/1/3 203/1/3 202/1/3
f 206/2/3 202/2/3 205/2/3
f 207/2/3 204/2/3 203/2/3
f 207/1/3 203/1/3 206/1/3
f 208/2/3 204/2/3 207/2/3
f 209/1/3 206/1/3 205/1/3
f 209/1/3 207/1/3 206/1/3
f 209/1/3 208/1/3 207/1/3
f 210/1/3 208/1/3 209/1/3
f 211/1/3 209/1/3 205/1/3
f 212/1/3 209/1/3 211/1/3
f 213/1/3 208/1/3 210/1/3
f 214/1/3 208/1/3 213/1/3
f 215/3/3 212/3/3 211/3/3
f 215/3/3 213/3/3 212/3/3
f 215/3/3 214/3/3 213/3/3
f 216/3/3 214/3/3 215/3/3
f 220/4/3 218/4/3 217/4/3
f 221/4/3 218/4/3 220/4/3
f 223/4/3 220/4/3 219/4/3
f 224/4/3 220/4/3 223/4/3
f 225/4/3 220/4/3 224/4/3
f 227/4/3 223/4/3 222/4/3
f 227/4/3 224/4/3 223/4/3
f 228/4/3 224/4/3 227/4/3
f 229/4/3 224/4/3 228/4/3
f 230/4/3 227/4/3 226/4/3
f 230/4/3 228/4/3 227/4/3
f 231/4/3 228/4/3 230/4/3
f 232/4/3 230/4/3 226/4/3
f 233/4/3 230/4/3 232/4/3
f 237/1/3 235/1/3 234/1/3
f 237/3/3 236/3/3 235/3/3
f 238/3/3 236/3/3 237/3/3
f 240/1/3 237/1/3 234/1/3
f 242/3/3 240/3/3 239/3/3
f 243/1/3 237/1/3 240/1/3
f 243/3/3 242/3/3 241/3/3
f 243/3/3 240/3/3 242/3/3
f 244/1/3 237/1/3 243/1/3
f 245/3/3 243/3/3 241/3/3
f 245/3/3 244/3/3 243/3/3
f 246/3/3 244/3/3 245/3/3
f 247/1/3 246/1/3 245/1/3
f 248/3/3 244/3/3 246/3/3
f 248/1/3 246/1/3 247/1/3
f 249/3/3 244/3/3 248/3/3
f 250/3/3 244/3/3 249/3/3
f 256/1/3 252/1/3 251/1/3
f 258/1/3 256/1/3 255/1/3
f 259/1/3 252/1/3 256/1/3
f 259/1/3 256/1/3 258/1/3
f 260/1/3 252/1/3 259/1/3
f 261/1/3 254/1/3 253/1/3
f 262/1/3 254/1/3 261/1/3
f 263/1/3 260/1/3 259/1/3
f 265/1/3 258/1/3 257/1/3
f 267/1/3 264/1/3 263/1/3
f 268/1/3 264/1/3 267/1/3
f 269/3/3 266/3/3 265/3/3
f 269/1/3 265/1/3 257/1/3
f 270/3/3 266/3/3 269/3/3
f 271/1/3 263/1/3 259/1/3
f 271/1/3 267/1/3 263/1/3
f 272/1/3 267/1/3 271/1/3
f 273/1/3 267/1/3 272/1/3
f 275/1/3 269/1/3 257/1/3
f 276/3/3 271/3/3 270/3/3
f 277/1/3 272/1/3 271/1/3
f 277/3/3 271/3/3 276/3/3
f 278/1/3 272/1/3 277/1/3
f 279/3/3 274/3/3 273/3/3
f 279/1/3 272/1/3 278/1/3
f 279/3/3 273/3/3 272/3/3
f 280/3/3 274/3/3 279/3/3
f 281/1/3 278/1/3 277/1/3
f 281/1/3 277/1/3 276/1/3
f 281/1/3 275/1/3 257/1/3
f 281/1/3 276/1/3 275/1/3
f 282/1/3 278/1/3 281/1/3
f 283/5/3 279/5/3 278/5/3
f 283/1/3 278/1/3 282/1/3
f 284/5/3 279/5/3 283/5/3
f 285/3/3 274/3/3 280/3/3
f 286/3/3 274/3/3 285/3/3
f 288/5/3 283/5/3 282/5/3
f 289/5/3 283/5/3 288/5/3
f 292/5/3 288/5/3 287/5/3
f 293/5/3 288/5/3 292/5/3
f 294/5/3 288/5/3 293/5/3
f 296/5/3 290/5/3 289/5/3
f 297/5/3 290/5/3 296/5/3
f 298/5/3 292/5/3 291/5/3
f 298/5/3 293/5/3 292/5/3
f 299/5/3 293/5/3 298/5/3
f 301/5/3 296/5/3 295/5/3
f 302/5/3 296/5/3 301/5/3
f 304/5/3 301/5/3 300/5/3
f 305/5/3 301/5/3 304/5/3
f 306/5/3 298/5/3 291/5/3
f 307/5/3 304/5/3 303/5/3
f 308/5/3 304/5/3 307/5/3
f 309/5/3 306/5/3 291/5/3
f 309/5/3 307/5/3 306/5/3
f 310/5/3 307/5/3 309/5/3
f 311/1/4 312/1/4 314/1/4
f 312/3/4 313/3/4 314/3/4
f 314/3/4 313/3/4 315/3/4
f 311/1/4 314/1/4 317/1/4
f 316/3/4 317/3/4 319/3/4
f 317/1/4 314/1/4 320/1/4
f 318/3/4 319/3/4 320/3/4
f 319/3/4 317/3/4 320/3/4
f 320/1/4 314/1/4 321/1/4
f 318/3/4 320/3/4 322/3/4
f 320/3/4 321/3/4 322/3/4
f 322/3/4 321/3/4 323/3/4
f 322/1/4 323/1/4 324/1/4
f 323/3/4 321/3/4 325/3/4
f 324/1/4 323/1/4 325/1/4
f 325/3/4 321/3/4 326/3/4
f 326/3/4 321/3/4 327/3/4
f 328/1/4 329/1/4 333/1/4
f 332/1/4 333/1/4 335/1/4
f 333/1/4 329/1/4 336/1/4
f 335/1/4 333/1/4 336/1/4
f 336/1/4 329/1/4 337/1/4
f 330/1/4 331/1/4 338/1/4
f 338/1/4 331/1/4 339/1/4
f 336/1/4 337/1/4 340/1/4
f 334/1/4 335/1/4 342/1/4
f 340/1/4 341/1/4 344/1/4
f 344/1/4 341/1/4 345/1/4
f 342/3/4 343/3/4 346/3/4
f 334/1/4 342/1/4 346/1/4
f 346/3/4 343/3/4 347/3/4
f 336/1/4 340/1/4 348/1/4
f 340/1/4 344/1/4 348/1/4
f 348/1/4 344/1/4 349/1/4
f 349/1/4 344/1/4 350/1/4
f 334/1/4 346/1/4 352/1/4
f 347/3/4 348/3/4 353/3/4
f 348/1/4 349/1/4 354/1/4
f 353/3/4 348/3/4 354/3/4
f 354/1/4 349/1/4 355/1/4
f 350/3/4 351/3/4 356/3/4
f 355/1/4 349/1/4 356/1/4
f 349/3/4 350/3/4 356/3/4
f 356/3/4 351/3/4 357/3/4
f 354/1/4 355/1/4 358/1/4
f 353/1/4 354/1/4 358/1/4
f 334/1/4 352/1/4 358/1/4
f 352/1/4 353/1/4 358/1/4
f 358/1/4 355/1/4 359/1/4
f 355/5/4 356/5/4 360/5/4
f 359/1/4 355/1/4 360/1/4
f 360/5/4 356/5/4 361/5/4
f 357/3/4 351/3/4 362/3/4
f 362/3/4 351/3/4 363/3/4
f 359/5/4 360/5/4 365/5/4
f 365/5/4 360/5/4 366/5/4
f 364/5/4 365/5/4 369/5/4
f 369/5/4 365/5/4 370/5/4
f 370/5/4 365/5/4 371/5/4
f 366/5/4 367/5/4 373/5/4
f 373/5/4 367/5/4 374/5/4
f 368/5/4 369/5/4 375/5/4
f 369/5/4 370/5/4 375/5/4
f 375/5/4 370/5/4 376/5/4
f 372/5/4 373/5/4 378/5/4
f 378/5/4 373/5/4 379/5/4
f 377/5/4 378/5/4 381/5/4
f 381/5/4 378/5/4 382/5/4
f 368/5/4 375/5/4 383/5/4
f 380/5/4 381/5/4 384/5/4
f 384/5/4 381/5/4 385/5/4
f 368/5/4 383/5/4 386/5/4
f 383/5/4 384/5/4 386/5/4
f 386/5/4 384/5/4 387/5/4
f 388/2/4 389/2/4 392/2/4
f 389/1/4 390/1/4 393/1/4
f 392/2/4 389/2/4 393/2/4
f 390/2/4 391/2/4 394/2/4
f 393/1/4 390/1/4 394/1/4
f 394/2/4 391/2/4 395/2/4
f 392/1/4 393/1/4 396/1/4
f 393/1/4 394/1/4 396/1/4
f 394/1/4 395/1/4 396/1/4
f 396/1/4 395/1/4 397/1/4
f 392/1/4 396/1/4 398/1/4
f 398/1/4 396/1/4 399/1/4
f 397/1/4 395/1/4 400/1/4
f 400/1/4 395/1/4 401/1/4
f 398/3/4 399/3/4 402/3/4
f 399/3/4 400/3/4 402/3/4
f 400/3/4 401/3/4 402/3/4
f 402/3/4 401/3/4 403/3/4
f 404/4/4 405/4/4 407/4/4
f 407/4/4 405/4/4 408/4/4
f 406/4/4 407/4/4 410/4/4
f 410/4/4 407/4/4 411/4/4
f 411/4/4 407/4/4 412/4/4
f 409/4/4 410/4/4 414/4/4
f 410/4/4 411/4/4 414/4/4
f 414/4/4 411/4/4 415/4/4
f 415/4/4 411/4/4 416/4/4
f 413/4/4 414/4/4 417/4/4
f 414/4/4 415/4/4 417/4/4
f 417/4/4 415/4/4 418/4/4
f 413/4/4 417/4/4 419/4/4
f 419/4/4 417/4/4 420/4/4
f 423/5/5 422/5/5 421/5/5
f 424/5/5 422/5/5 423/5/5
f 429/4/5 426/4/5 425/4/5
f 430/4/5 426/4/5 429/4/5
f 431/5/5 428/5/5 427/5/5
f 432/5/5 428/5/5 431/5/5
f 435/4/5 434/4/5 433/4/5
f 436/4/5 434/4/5 435/4/5
f 441/4/5 438/4/5 437/4/5
f 442/4/5 438/4/5 441/4/5
f 443/1/5 440/1/5 439/1/5
f 444/1/5 440/1/5 443/1/5
f 447/4/5 446/4/5 445/4/5
f 448/4/5 446/4/5 447/4/5
f 451/1/5 450/1/5 449/1/5
f 452/1/5 450/1/5 451/1/5
f 458/4/5 454/4/5 453/4/5
f 459/4/5 454/4/5 458/4/5
f 460/3/5 456/3/5 455/3/5
f 461/3/5 456/3/5 460/3/5
f 462/5/5 458/5/5 457/5/5
f 463/5/5 458/5/5 462/5/5
f 465/4/5 464/4/5 463/4/5
f 466/4/5 464/4/5 465/4/5
f 471/1/5 468/1/5 467/1/5
f 472/1/5 468/1/5 471/1/5
f 473/1/5 470/1/5 469/1/5
f 474/1/5 470/1/5 473/1/5
f 483/2/5 476/2/5 475/2/5
f 484/1/5 477/1/5 476/1/5
f 484/2/5 476/2/5 483/2/5
f 485/1/5 477/1/5 484/1/5
f 486/3/5 478/3/5 477/3/5
f 486/1/5 477/1/5 485/1/5
f 487/3/5 478/3/5 486/3/5
f 488/4/5 480/4/5 479/4/5
f 489/4/5 480/4/5 488/4/5
f 490/3/5 482/3/5 481/3/5
f 491/1/5 483/1/5 482/1/5
f 491/3/5 482/3/5 490/3/5
f 491/1/5 485/1/5 484/1/5
f 491/1/5 484/1/5 483/1/5
f 492/1/5 485/1/5 491/1/5
f 493/1/5 485/1/5 492/1/5
f 494/1/5 485/1/5 493/1/5
f 499/2/5 493/2/5 492/2/5
f 500/1/5 495/1/5 494/1/5
f 500/2/5 493/2/5 499/2/5
f 500/1/5 494/1/5 493/1/5
f 501/3/5 496/3/5 495/3/5
f 501/1/5 495/1/5 500/1/5
f 502/3/5 496/3/5 501/3/5
f 503/4/5 498/4/5 497/4/5
f 504/4/5 498/4/5 503/4/5
f 507/3/5 506/3/5 505/3/5
f 508/3/5 506/3/5 507/3/5
f 513/1/5 510/1/5 509/1/5
f 514/1/5 510/1/5 513/1/5
f 517/1/5 512/1/5 511/1/5
f 518/1/5 512/1/5 517/1/5
f 521/3/5 516/3/5 515/3/5
f 522/3/5 516/3/5 521/3/5
f 523/1/5 520/1/5 519/1/5
f 524/1/5 520/1/5 523/1/5
f 525/4/6 526/4/6 531/4/6
f 531/4/6 526/4/6 532/4/6
f 527/1/6 528/1/6 534/1/6
f 534/1/6 528/1/6 535/1/6
f 529/1/6 530/1/6 536/1/6
f 536/1/6 530/1/6 537/1/6
f 532/5/6 533/5/6 539/5/6
f 539/5/6 533/5/6 540/5/6
f 538/4/6 539/4/6 541/4/6
f 541/4/6 539/4/6 542/4/6
f 543/4/6 544/4/6 547/4/6
f 547/4/6 544/4/6 548/4/6
f 545/3/6 546/3/6 550/3/6
f 550/3/6 546/3/6 551/3/6
f 548/5/6 549/5/6 553/5/6
f 553/5/6 549/5/6 554/5/6
f 552/4/6 553/4/6 555/4/6
f 555/4/6 553/4/6 556/4/6
f 557/4/6 558/4/6 559/4/6
f 559/4/6 558/4/6 560/4/6
f 560/5/6 561/5/6 563/5/6
f 563/5/6 561/5/6 564/5/6
f 562/4/6 563/4/6 565/4/6
f 565/4/6 563/4/6 566/4/6
f 567/4/6 568/4/6 569/4/6
f 569/4/6 568/4/6 570/4/6
f 570/5/6 571/5/6 573/5/6
f 573/5/6 571/5/6 574/5/6
f 572/4/6 573/4/6 575/4/6
f 575/4/6 573/4/6 576/4/6
f 577/1/6 578/1/6 581/1/6
f 581/1/6 578/1/6 582/1/6
f 579/4/6 580/4/6 584/4/6
f 584/4/6 580/4/6 585/4/6
f 585/5/6 586/5/6 589/5/6
f 583/5/6 584/5/6 589/5/6
f 584/5/6 585/5/6 589/5/6
f 589/5/6 586/5/6 590/5/6
f 590/5/6 586/5/6 591/5/6
f 591/5/6 586/5/6 592/5/6
f 587/1/6 588/1/6 593/1/6
f 593/1/6 588/1/6 594/1/6
f 590/4/6 591/4/6 595/4/6
f 595/4/6 591/4/6 596/4/6
f 597/1/6 598/1/6 599/1/6
f 599/1/6 598/1/6 600/1/6
f 601/2/6 602/2/6 607/2/6
f 602/1/6 603/1/6 608/1/6
f 607/2/6 602/2/6 608/2/6
f 603/3/6 604/3/6 609/3/6
f 608/1/6 603/1/6 609/1/6
f 609/3/6 604/3/6 610/3/6
f 605/1/6 606/1/6 614/1/6
f 606/3/6 607/3/6 615/3/6
f 614/1/6 606/1/6 615/1/6
f 607/1/6 608/1/6 616/1/6
f 615/3/6 607/3/6 616/3/6
f 608/1/6 609/1/6 616/1/6
f 610/1/6 611/1/6 616/1/6
f 609/1/6 610/1/6 616/1/6
f 616/1/6 611/1/6 617/1/6
f 617/1/6 611/1/6 618/1/6
f 618/1/6 611/1/6 619/1/6
f 619/1/6 611/1/6 620/1/6
f 612/3/6 613/3/6 621/3/6
f 621/3/6 613/3/6 622/3/6
f 616/2/6 617/2/6 623/2/6
f 617/1/6 618/1/6 624/1/6
f 623/2/6 617/2/6 624/2/6
f 618/3/6 619/3/6 625/3/6
f 624/1/6 618/1/6 625/1/6
f 625/3/6 619/3/6 626/3/6
f 627/3/6 628/3/6 629/3/6
f 629/3/6 628/3/6 630/3/6
